<svg id="Capa_1" enable-background="new 0 0 512 512" height="512" viewBox="0 0 512 512" width="512" xmlns="http://www.w3.org/2000/svg" xmlns:xlink="http://www.w3.org/1999/xlink"><linearGradient id="SVGID_1_" gradientUnits="userSpaceOnUse" x1="256" x2="256" y1="512" y2="0"><stop offset="0" stop-color="#ffc8d1"/><stop offset="1" stop-color="#fff6f7"/></linearGradient><linearGradient id="SVGID_2_" gradientUnits="userSpaceOnUse" x1="256" x2="256" y1="407" y2="105"><stop offset="0" stop-color="#ffa68d"/><stop offset="1" stop-color="#fd3a84"/></linearGradient><g><g><circle cx="256" cy="256" fill="url(#SVGID_1_)" r="256"/></g></g><g><g><g><g><path d="m256 230.047c-34.15 0-61.934 27.783-61.934 61.934s27.784 61.933 61.934 61.933 61.934-27.783 61.934-61.934-27.784-61.933-61.934-61.933zm41.647 50.494-44.238 44.238c-1.727 1.728-3.992 2.592-6.256 2.592s-4.529-.864-6.256-2.592l-26.543-26.543c-3.456-3.455-3.456-9.057 0-12.512 3.455-3.456 9.057-3.456 12.512 0l20.287 20.287 37.982-37.982c3.455-3.456 9.057-3.456 12.512 0 3.455 3.455 3.455 9.057 0 12.512zm-94.733-104.76h106.172c4.886 0 8.848-3.961 8.848-8.848v-17.695c0-14.636-11.907-26.543-26.543-26.543h-10.364c-3.652-10.299-13.492-17.695-25.027-17.695s-21.375 7.396-25.027 17.695h-10.364c-14.636 0-26.543 11.907-26.543 26.543v17.695c0 4.887 3.962 8.848 8.848 8.848zm159.258-35.39h-27.433c.583 2.859.89 5.818.89 8.848v17.695c0 14.636-11.907 26.543-26.543 26.543h-106.172c-14.636 0-26.543-11.907-26.543-26.543v-17.695c0-3.029.307-5.988.89-8.848h-27.433c-4.886 0-8.848 3.961-8.848 8.848v248.914c0 4.886 3.961 8.848 8.848 8.848h212.344c4.886 0 8.848-3.961 8.848-8.848v-248.915c0-4.886-3.962-8.847-8.848-8.847zm-106.172 231.218c-43.908 0-79.629-35.721-79.629-79.629s35.721-79.629 79.629-79.629 79.629 35.721 79.629 79.629-35.721 79.629-79.629 79.629z" fill="url(#SVGID_2_)"/></g></g></g></g></svg>