<svg id="Capa_1" enable-background="new 0 0 512 512" height="512" viewBox="0 0 512 512" width="512" xmlns="http://www.w3.org/2000/svg" xmlns:xlink="http://www.w3.org/1999/xlink"><linearGradient id="SVGID_1_" gradientUnits="userSpaceOnUse" x1="256" x2="256" y1="512" y2="0"><stop offset="0" stop-color="#c3ffe8"/><stop offset=".9973" stop-color="#f0fff4"/></linearGradient><linearGradient id="SVGID_2_" gradientUnits="userSpaceOnUse" x1="256" x2="256" y1="407" y2="105"><stop offset="0" stop-color="#9cffac"/><stop offset="1" stop-color="#00b59c"/></linearGradient><circle cx="256" cy="256" fill="url(#SVGID_1_)" r="256"/><g><g><path d="m256 300.412c-4.907 0-8.909 3.981-8.909 8.882s4.002 8.882 8.909 8.882 8.909-3.981 8.909-8.882-4.002-8.882-8.909-8.882zm35.636 71.059h-71.273c-4.907 0-8.909 3.981-8.909 8.882v26.647h89.091v-26.647c0-4.901-4.002-8.882-8.909-8.882zm53.455-266.471h-178.182c-4.924 0-8.909 3.973-8.909 8.882v284.235c0 4.91 3.985 8.882 8.909 8.882h26.727v-26.647c0-14.694 11.989-26.647 26.727-26.647h71.273c14.738 0 26.727 11.953 26.727 26.647v26.648h26.727c4.924 0 8.909-3.973 8.909-8.882v-284.236c.001-4.909-3.984-8.882-8.908-8.882zm-89.091 230.941c-14.738 0-26.727-11.953-26.727-26.647s11.989-26.647 26.727-26.647 26.727 11.953 26.727 26.647-11.989 26.647-26.727 26.647zm53.455-88.823h-106.91c-4.924 0-8.909-3.973-8.909-8.882 0-4.91 3.985-8.882 8.909-8.882h106.909c4.924 0 8.909 3.973 8.909 8.882.001 4.909-3.984 8.882-8.908 8.882zm0-35.53h-106.91c-4.924 0-8.909-3.973-8.909-8.882s3.985-8.882 8.909-8.882h106.909c4.924 0 8.909 3.973 8.909 8.882.001 4.909-3.984 8.882-8.908 8.882zm0-35.529h-106.91c-4.924 0-8.909-3.973-8.909-8.882 0-4.91 3.985-8.882 8.909-8.882h106.909c4.924 0 8.909 3.973 8.909 8.882.001 4.909-3.984 8.882-8.908 8.882z" fill="url(#SVGID_2_)"/></g></g></svg>