<svg id="Capa_1" enable-background="new 0 0 512 512" height="512" viewBox="0 0 512 512" width="512" xmlns="http://www.w3.org/2000/svg" xmlns:xlink="http://www.w3.org/1999/xlink"><linearGradient id="SVGID_1_" gradientUnits="userSpaceOnUse" x1="256" x2="256" y1="512" y2="0"><stop offset="0" stop-color="#addcff"/><stop offset=".5028" stop-color="#eaf6ff"/><stop offset="1" stop-color="#eaf6ff"/></linearGradient><linearGradient id="SVGID_2_" gradientUnits="userSpaceOnUse" x1="256" x2="256" y1="407" y2="105"><stop offset="0" stop-color="#00c0ff"/><stop offset="1" stop-color="#5558ff"/></linearGradient><g><g><circle cx="256" cy="256" fill="url(#SVGID_1_)" r="256"/></g><g><g><path d="m309.333 105h-38.95l-20.234 40.439c23.577 12.051 27.893 13.438 29.913 15.458l17.778 17.765c3.472 3.47 3.472 9.09 0 12.56s-9.097 3.47-12.569 0l-10.111-10.103-29.542 44.279c-2.68 4.023-8.169 5.217-12.326 2.463-4.089-2.724-5.191-8.232-2.465-12.317l29.97-44.921-20.82-10.403-13.247 13.237c-3.472 3.47-9.097 3.47-12.569 0s-3.472-9.091 0-12.56l16.753-16.741 19.591-39.156h-47.839c-14.704 0-26.666 11.953-26.666 26.647v248.706c0 14.694 11.962 26.647 26.667 26.647h106.667c14.704 0 26.666-11.953 26.666-26.647v-248.706c0-14.694-11.962-26.647-26.667-26.647zm-35.555 266.471h-35.556c-4.913 0-8.889-3.973-8.889-8.883 0-4.909 3.976-8.882 8.889-8.882h35.556c4.913 0 8.889 3.973 8.889 8.882 0 4.91-3.976 8.883-8.889 8.883z" fill="url(#SVGID_2_)"/></g></g></g></svg>