<svg id="Capa_1" enable-background="new 0 0 512 512" height="512" viewBox="0 0 512 512" width="512" xmlns="http://www.w3.org/2000/svg" xmlns:xlink="http://www.w3.org/1999/xlink"><linearGradient id="SVGID_1_" gradientUnits="userSpaceOnUse" x1="256" x2="256" y1="512" y2="0"><stop offset="0" stop-color="#ffc8d1"/><stop offset="1" stop-color="#fff6f7"/></linearGradient><linearGradient id="SVGID_2_" gradientUnits="userSpaceOnUse" x1="256" x2="256" y1="105" y2="407"><stop offset="0" stop-color="#fd3a84"/><stop offset="1" stop-color="#ffa68d"/></linearGradient><g><circle cx="256" cy="256" fill="url(#SVGID_1_)" r="256"/><g><g><path d="m380.353 193.823h-248.706c-14.694 0-26.647 11.953-26.647 26.647v106.588c0 4.909 3.973 8.882 8.882 8.882h44.412v-35.53h-8.883c-4.909 0-8.882-3.973-8.882-8.882s3.973-8.882 8.882-8.882h213.177c4.909 0 8.882 3.973 8.882 8.882 0 4.91-3.973 8.882-8.882 8.882h-8.883v35.53h44.412c4.91 0 8.882-3.973 8.882-8.882v-106.587c.001-14.694-11.952-26.648-26.646-26.648zm-230.941 53.294c-4.905 0-8.882-3.976-8.882-8.883 0-4.905 3.977-8.882 8.882-8.882s8.883 3.977 8.883 8.882c-.001 4.907-3.978 8.883-8.883 8.883zm26.647 151.001c0 4.905 3.977 8.882 8.882 8.882h142.118c4.905 0 8.882-3.977 8.882-8.882v-97.706h-159.882zm26.647-71.059h106.588c4.909 0 8.882 3.973 8.882 8.882s-3.973 8.882-8.882 8.882h-106.588c-4.909 0-8.882-3.973-8.882-8.882s3.972-8.882 8.882-8.882zm0 35.529h106.588c4.909 0 8.882 3.973 8.882 8.883 0 4.909-3.973 8.882-8.882 8.882h-106.588c-4.909 0-8.882-3.973-8.882-8.882-.001-4.91 3.972-8.883 8.882-8.883zm142.117-248.706c0-4.91-3.973-8.882-8.882-8.882h-159.882c-4.91 0-8.882 3.973-8.882 8.882v62.177h177.647v-62.177z" fill="url(#SVGID_2_)"/></g></g></g></svg>