<svg id="Capa_1" enable-background="new 0 0 512 512" height="512" viewBox="0 0 512 512" width="512" xmlns="http://www.w3.org/2000/svg" xmlns:xlink="http://www.w3.org/1999/xlink"><linearGradient id="SVGID_1_" gradientUnits="userSpaceOnUse" x1="256" x2="256" y1="512" y2="0"><stop offset="0" stop-color="#ffbef9"/><stop offset="1" stop-color="#fff1ff"/></linearGradient><linearGradient id="SVGID_2_" gradientUnits="userSpaceOnUse" x1="256" x2="256" y1="309.357" y2="184.857"><stop offset="0" stop-color="#ff81ff"/><stop offset="1" stop-color="#a93aff"/></linearGradient><g><g><circle cx="256" cy="256" fill="url(#SVGID_1_)" r="256"/></g><g><g><path d="m398.118 327.143h-284.236c-4.91 0-8.882 3.978-8.882 8.893 0 24.516 19.925 44.464 44.412 44.464h213.177c24.487 0 44.412-19.948 44.412-44.464-.001-4.916-3.974-8.893-8.883-8.893zm-142.118-35.572c44.15 0 79.941-35.833 79.941-80.036s-35.791-80.035-79.941-80.035-79.941 35.833-79.941 80.036 35.791 80.035 79.941 80.035zm-8.882-115.607c0-4.916 3.973-8.893 8.882-8.893s8.882 3.978 8.882 8.893v31.889l15.163 15.18c3.469 3.474 3.469 9.101 0 12.575-3.47 3.474-9.091 3.474-12.56 0l-17.765-17.786c-1.666-1.667-2.602-3.925-2.602-6.288zm142.117 35.572c0-14.711-11.953-26.678-26.647-26.678h-12.67c2.412 8.494 3.787 17.421 3.787 26.678 0 53.939-43.831 97.822-97.706 97.822h133.235v-97.822zm-230.941 0c0-9.258 1.376-18.184 3.787-26.678h-12.67c-14.694 0-26.647 11.967-26.647 26.678v97.822h133.236c-53.875-.001-97.706-43.883-97.706-97.822z" fill="url(#SVGID_2_)"/></g></g></g></svg>