<svg id="Capa_1" enable-background="new 0 0 512 512" height="512" viewBox="0 0 512 512" width="512" xmlns="http://www.w3.org/2000/svg" xmlns:xlink="http://www.w3.org/1999/xlink"><linearGradient id="SVGID_1_" gradientUnits="userSpaceOnUse" x1="256" x2="256" y1="512" y2="0"><stop offset="0" stop-color="#addcff"/><stop offset=".5028" stop-color="#eaf6ff"/><stop offset="1" stop-color="#eaf6ff"/></linearGradient><linearGradient id="SVGID_2_" gradientUnits="userSpaceOnUse" x1="256" x2="256" y1="407" y2="105"><stop offset="0" stop-color="#00c0ff"/><stop offset="1" stop-color="#5558ff"/></linearGradient><g><circle cx="256" cy="256" fill="url(#SVGID_1_)" r="256"/></g><g><g><path d="m335.941 113.882c0-4.91-3.973-8.882-8.882-8.882h-142.118c-4.91 0-8.882 3.973-8.882 8.882v44.412h159.882zm-8.882 168.765h-142.118c-4.91 0-8.882 3.973-8.882 8.882v106.588c0 4.91 3.973 8.882 8.882 8.882h142.118c4.91 0 8.882-3.973 8.882-8.882v-106.588c0-4.909-3.973-8.882-8.882-8.882zm-35.53 88.824h-71.059c-4.91 0-8.882-3.973-8.882-8.882s3.973-8.882 8.882-8.882h71.059c4.91 0 8.882 3.973 8.882 8.882s-3.972 8.882-8.882 8.882zm0-35.53h-71.059c-4.91 0-8.882-3.973-8.882-8.883 0-4.909 3.973-8.882 8.882-8.882h71.059c4.91 0 8.882 3.973 8.882 8.882.001 4.91-3.972 8.883-8.882 8.883zm106.589-159.882h-284.236c-4.91 0-8.882 3.973-8.882 8.882v124.353c0 4.91 3.973 8.882 8.882 8.882h44.412v-26.647c0-14.694 11.953-26.647 26.647-26.647h142.118c14.694 0 26.647 11.953 26.647 26.647v26.647h44.412c4.91 0 8.882-3.973 8.882-8.882v-124.353c0-4.91-3.973-8.882-8.882-8.882zm-230.942 71.059c-14.694 0-26.647-11.953-26.647-26.647s11.953-26.647 26.647-26.647 26.647 11.953 26.647 26.647c.001 14.694-11.952 26.647-26.647 26.647zm142.118-17.765h-17.765c-4.91 0-8.882-3.973-8.882-8.882 0-4.91 3.973-8.883 8.882-8.883h17.765c4.91 0 8.882 3.973 8.882 8.883 0 4.909-3.972 8.882-8.882 8.882zm53.294 0h-17.765c-4.91 0-8.882-3.973-8.882-8.882 0-4.91 3.973-8.883 8.882-8.883h17.765c4.91 0 8.882 3.973 8.882 8.883.001 4.909-3.972 8.882-8.882 8.882zm-195.412-17.765c-4.892 0-8.882 3.981-8.882 8.883 0 4.901 3.99 8.882 8.882 8.882s8.882-3.981 8.882-8.882c.001-4.901-3.989-8.883-8.882-8.883z" fill="url(#SVGID_2_)"/></g></g></svg>