<svg id="Capa_1" enable-background="new 0 0 512 512" height="512" viewBox="0 0 512 512" width="512" xmlns="http://www.w3.org/2000/svg" xmlns:xlink="http://www.w3.org/1999/xlink"><linearGradient id="SVGID_1_" gradientUnits="userSpaceOnUse" x1="256" x2="256" y1="512" y2="0"><stop offset="0" stop-color="#addcff"/><stop offset=".5028" stop-color="#eaf6ff"/><stop offset="1" stop-color="#eaf6ff"/></linearGradient><linearGradient id="SVGID_2_" gradientUnits="userSpaceOnUse" x1="256" x2="256" y1="380.5" y2="131.5"><stop offset="0" stop-color="#00c0ff"/><stop offset="1" stop-color="#5558ff"/></linearGradient><g><g><circle cx="256" cy="256" fill="url(#SVGID_1_)" r="256"/></g><g><g><path d="m257.318 215.426-22.796-7.616 7.599 22.831zm140.8 93.931h-88.824c-2.359 0-4.615.938-6.28 2.605l-15.162 15.18h-63.703l-15.162-15.18c-1.665-1.667-3.921-2.605-6.28-2.605h-88.824c-4.91 0-8.882 3.977-8.882 8.893 0 34.321 27.896 62.25 62.176 62.25h177.647c34.28 0 62.176-27.929 62.176-62.25 0-4.915-3.973-8.893-8.882-8.893zm-176.572-9.97 9.958 9.97h48.992l9.958-9.97c5.031-5.037 11.727-7.816 18.84-7.816h79.941v-133.392c0-14.711-11.953-26.679-26.647-26.679h-213.176c-14.694 0-26.647 11.967-26.647 26.679v133.393h79.941c7.113-.001 13.809 2.778 18.84 7.815zm-7.356-111.925c2.394-2.362 5.898-3.213 9.091-2.145l53.294 17.786c2.915.973 5.135 3.387 5.829 6.392.711 2.996-.173 6.149-2.359 8.328l-11.485 11.498 11.485 11.498c3.47 3.474 3.47 9.101 0 12.575s-9.09 3.474-12.56 0l-11.485-11.498-11.485 11.498c-2.142 2.144-5.26 3.079-8.327 2.371-2.984-.712-5.413-2.918-6.384-5.845l-17.765-53.357c-1.058-3.195-.225-6.721 2.151-9.101z" fill="url(#SVGID_2_)"/></g></g></g></svg>