<svg id="Capa_1" enable-background="new 0 0 512 512" height="512" viewBox="0 0 512 512" width="512" xmlns="http://www.w3.org/2000/svg" xmlns:xlink="http://www.w3.org/1999/xlink"><linearGradient id="SVGID_1_" gradientUnits="userSpaceOnUse" x1="256" x2="256" y1="512" y2="0"><stop offset="0" stop-color="#addcff"/><stop offset=".5028" stop-color="#eaf6ff"/><stop offset="1" stop-color="#eaf6ff"/></linearGradient><linearGradient id="SVGID_2_" gradientUnits="userSpaceOnUse" x1="256" x2="256" y1="110.226" y2="401.774"><stop offset="0" stop-color="#5558ff"/><stop offset="1" stop-color="#00c0ff"/></linearGradient><g><g><circle cx="256" cy="256" fill="url(#SVGID_1_)" r="256"/></g><g><g><path d="m398.118 259.656h-60.823c4.785 10.9 7.529 22.885 7.529 35.529 0 48.974-39.849 88.823-88.824 88.823h97.706v8.882c0 4.91 3.973 8.883 8.882 8.883 4.91 0 8.882-3.973 8.882-8.883v-8.882h26.647c4.91 0 8.882-3.973 8.882-8.882v-106.587c.001-4.91-3.972-8.883-8.881-8.883zm-35.53 71.059c-4.905 0-8.882-3.977-8.882-8.882 0-4.906 3.977-8.882 8.882-8.882s8.882 3.976 8.882 8.882c.001 4.905-3.977 8.882-8.882 8.882zm-168.313-177.196c16.455-16.464 38.375-25.528 61.725-25.528s45.271 9.064 61.725 25.528c3.47 3.47 9.091 3.47 12.56 0 3.47-3.47 3.47-9.091 0-12.56-19.812-19.821-46.19-30.733-74.286-30.733s-54.474 10.912-74.286 30.733c-3.47 3.47-3.47 9.091 0 12.56 3.471 3.47 9.092 3.47 12.562 0zm110.89 25.12c3.47-3.47 3.47-9.091 0-12.56-27.115-27.115-71.215-27.115-98.33 0-3.47 3.47-3.47 9.091 0 12.56s9.091 3.47 12.56 0c20.193-20.176 53.017-20.176 73.21 0 3.47 3.47 9.091 3.47 12.56 0zm-73.21 12.561c-3.47 3.469-3.47 9.09 0 12.56s9.091 3.47 12.56 0c6.332-6.332 16.637-6.332 22.969 0 3.47 3.47 9.091 3.47 12.56 0s3.47-9.091 0-12.56c-13.253-13.255-34.835-13.255-48.089 0zm24.045 130.633c14.694 0 26.647-11.953 26.647-26.647s-11.953-26.647-26.647-26.647-26.647 11.953-26.647 26.647 11.953 26.647 26.647 26.647zm0 44.411c39.245 0 71.059-31.815 71.059-71.059 0-39.245-31.814-71.059-71.059-71.059s-71.059 31.814-71.059 71.059 31.814 71.059 71.059 71.059zm0-115.47c24.487 0 44.412 19.924 44.412 44.412s-19.925 44.411-44.412 44.411-44.412-19.925-44.412-44.412 19.925-44.411 44.412-44.411zm-88.824 44.412c0-12.645 2.744-24.629 7.529-35.529h-60.823c-4.91 0-8.882 3.973-8.882 8.882v106.588c0 4.91 3.973 8.882 8.882 8.882h26.647v8.882c0 4.91 3.973 8.883 8.882 8.883 4.91 0 8.882-3.973 8.882-8.883v-8.882h97.707c-48.974 0-88.824-39.849-88.824-88.823zm-17.764 35.529c-4.905 0-8.882-3.977-8.882-8.882 0-4.906 3.977-8.882 8.882-8.882s8.882 3.976 8.882 8.882c0 4.905-3.977 8.882-8.882 8.882z" fill="url(#SVGID_2_)"/></g></g></g></svg>