<svg id="Capa_1" enable-background="new 0 0 512 512" height="512" viewBox="0 0 512 512" width="512" xmlns="http://www.w3.org/2000/svg" xmlns:xlink="http://www.w3.org/1999/xlink"><linearGradient id="SVGID_1_" gradientUnits="userSpaceOnUse" x1="256" x2="256" y1="512" y2="0"><stop offset="0" stop-color="#ffe59a"/><stop offset="1" stop-color="#ffffd5"/></linearGradient><linearGradient id="SVGID_2_" gradientUnits="userSpaceOnUse" x1="256" x2="256" y1="362.5" y2="149.5"><stop offset="0" stop-color="#ffde00"/><stop offset="1" stop-color="#fd5900"/></linearGradient><g><g><circle cx="256" cy="256" fill="url(#SVGID_1_)" r="256"/></g><g><g><path d="m252.799 190.677c15.11-15.107 35.174-23.427 56.495-23.427s41.385 8.32 56.495 23.427c1.735 1.733 4.007 2.6 6.28 2.6s4.545-.867 6.28-2.6c3.47-3.467 3.47-9.083 0-12.55-18.467-18.461-42.989-28.627-69.055-28.627s-50.588 10.166-69.055 28.627c-3.47 3.467-3.47 9.083 0 12.55s9.091 3.467 12.56 0zm56.495 47.573c-4.901 0-8.883 3.978-8.883 8.875s3.981 8.875 8.883 8.875c4.901 0 8.882-3.978 8.882-8.875s-3.981-8.875-8.882-8.875zm88.824-17.75h-13.63c.032.093.083.175.116.269 2.984 7.627 4.632 16.736 4.632 26.356 0 44.046-35.859 79.875-79.941 79.875s-79.941-35.829-79.941-79.875c0-9.333 1.656-18.274 4.787-26.625h-120.259c-4.91 0-8.882 3.969-8.882 8.875v106.5c0 4.906 3.973 8.875 8.882 8.875h26.647v8.875c0 4.906 3.973 8.875 8.882 8.875 4.91 0 8.883-3.969 8.883-8.875v-8.875h195.412v8.875c0 4.906 3.973 8.875 8.883 8.875 4.909 0 8.882-3.969 8.882-8.875v-8.875h26.647c4.91 0 8.882-3.969 8.882-8.875v-106.5c0-4.906-3.973-8.875-8.882-8.875zm-195.412 88.75h-53.294c-4.909 0-8.882-3.969-8.882-8.875s3.973-8.875 8.882-8.875h53.294c4.91 0 8.883 3.969 8.883 8.875s-3.974 8.875-8.883 8.875zm0-35.5h-53.294c-4.909 0-8.882-3.969-8.882-8.875s3.973-8.875 8.882-8.875h53.294c4.91 0 8.883 3.969 8.883 8.875s-3.974 8.875-8.883 8.875zm106.588-88.75c-26.5 0-50.007 16.675-58.377 41.168-2.524 6.509-3.799 13.555-3.799 20.957 0 34.252 27.896 62.125 62.177 62.125 34.28 0 62.177-27.873 62.177-62.125 0-7.402-1.275-14.448-3.678-20.619-8.493-24.831-32-41.506-58.5-41.506zm0 88.75c-14.694 0-26.647-11.943-26.647-26.625s11.953-26.625 26.647-26.625 26.647 11.943 26.647 26.625-11.953 26.625-26.647 26.625z" fill="url(#SVGID_2_)"/></g></g></g></svg>