<svg id="Capa_1" enable-background="new 0 0 512 512" height="512" viewBox="0 0 512 512" width="512" xmlns="http://www.w3.org/2000/svg" xmlns:xlink="http://www.w3.org/1999/xlink"><linearGradient id="SVGID_1_" gradientUnits="userSpaceOnUse" x1="256" x2="256" y1="512" y2="0"><stop offset="0" stop-color="#ffc8d1"/><stop offset="1" stop-color="#fff6f7"/></linearGradient><linearGradient id="SVGID_2_" gradientUnits="userSpaceOnUse" x1="256" x2="256" y1="407" y2="105.008"><stop offset="0" stop-color="#ffa68d"/><stop offset="1" stop-color="#fd3a84"/></linearGradient><g><g><circle cx="256" cy="256" fill="url(#SVGID_1_)" r="256"/></g><g><g><path d="m178.661 280.045c1.735 1.735 4.007 2.602 6.28 2.602s4.545-.867 6.28-2.602c3.47-3.47 3.47-9.091 0-12.56l-17.765-17.765c-3.47-3.47-9.091-3.47-12.56 0s-3.47 9.091 0 12.56zm41.81 2.602c4.91 0 8.882-3.973 8.882-8.882v-35.529c0-4.91-3.973-8.882-8.882-8.882-4.91 0-8.882 3.973-8.882 8.882v35.529c-.001 4.909 3.972 8.882 8.882 8.882zm41.809-2.602 17.765-17.765c3.47-3.47 3.47-9.091 0-12.56s-9.091-3.47-12.56 0l-17.765 17.765c-3.47 3.47-3.47 9.091 0 12.56 1.735 1.735 4.007 2.602 6.28 2.602s4.545-.867 6.28-2.602zm144.468 27.999c-.094-.659-.147-1.308-.391-1.938-.239-.616-.629-1.121-.992-1.662-.245-.369-.365-.788-.672-1.127l-177.647-195.411c-3.296-3.626-8.9-3.877-12.543-.599-3.643 3.305-3.903 8.917-.607 12.552l164.139 180.553h-264.153c-4.91 0-8.882 3.973-8.882 8.882 0 41.041 31.198 74.559 71.059 79.043v9.78c0 4.91 3.973 8.882 8.882 8.882 4.91 0 8.882-3.973 8.882-8.882v-8.882h159.882v8.882c0 4.91 3.973 8.882 8.882 8.882 4.91 0 8.882-3.973 8.882-8.882v-8.882h26.647c4.91 0 8.882-3.973 8.882-8.882v-71.059c.002-.443-.187-.824-.25-1.25zm-221.807 45.662c-4.905 0-8.882-3.977-8.882-8.882 0-4.906 3.977-8.882 8.882-8.882s8.882 3.976 8.882 8.882c.001 4.905-3.977 8.882-8.882 8.882zm35.53 0c-4.905 0-8.882-3.977-8.882-8.882 0-4.906 3.977-8.882 8.882-8.882s8.882 3.976 8.882 8.882c0 4.905-3.977 8.882-8.882 8.882zm35.529 0c-4.905 0-8.882-3.977-8.882-8.882 0-4.906 3.977-8.882 8.882-8.882s8.882 3.976 8.882 8.882c0 4.905-3.977 8.882-8.882 8.882z" fill="url(#SVGID_2_)"/></g></g></g></svg>