<svg id="Capa_1" enable-background="new 0 0 512 512" height="512" viewBox="0 0 512 512" width="512" xmlns="http://www.w3.org/2000/svg" xmlns:xlink="http://www.w3.org/1999/xlink"><linearGradient id="SVGID_1_" gradientUnits="userSpaceOnUse" x1="256" x2="256" y1="512" y2="0"><stop offset="0" stop-color="#addcff"/><stop offset=".5028" stop-color="#eaf6ff"/><stop offset="1" stop-color="#eaf6ff"/></linearGradient><linearGradient id="SVGID_2_" gradientUnits="userSpaceOnUse" x1="256" x2="256" y1="105" y2="407"><stop offset="0" stop-color="#5558ff"/><stop offset="1" stop-color="#00c0ff"/></linearGradient><g><g><circle cx="256" cy="256" fill="url(#SVGID_1_)" r="256"/></g><g><g><path d="m398.118 193.823h-35.529c0 19.595-15.934 35.529-35.529 35.529h-142.119c-19.595 0-35.529-15.934-35.529-35.529h-35.529c-4.91 0-8.882 3.973-8.882 8.882v124.353c0 4.91 3.973 8.882 8.882 8.882h35.529v-17.765c0-19.595 15.934-35.53 35.529-35.53h142.118c19.595 0 35.529 15.935 35.529 35.53v17.765h35.529c4.91 0 8.882-3.973 8.882-8.882v-124.352c.001-4.91-3.972-8.883-8.881-8.883zm-248.706 71.059c-4.905 0-8.882-3.977-8.882-8.882 0-4.906 3.977-8.882 8.882-8.882s8.882 3.976 8.882 8.882c0 4.905-3.977 8.882-8.882 8.882zm35.529 0c-4.905 0-8.882-3.977-8.882-8.882 0-4.906 3.977-8.882 8.882-8.882s8.882 3.976 8.882 8.882c.001 4.905-3.977 8.882-8.882 8.882zm115.471-149.832v25.479h38.218zm-115.471 96.538h142.118c9.812 0 17.765-7.954 17.765-17.765v-35.529h-53.294c-4.91 0-8.882-3.973-8.882-8.882v-44.412h-106.589c-4.905 0-8.882 3.976-8.882 8.882v79.941c-.001 9.811 7.953 17.765 17.764 17.765zm142.118 88.824h-142.118c-9.812 0-17.765 7.953-17.765 17.765v79.941c0 4.905 3.977 8.882 8.882 8.882h159.882c4.905 0 8.882-3.977 8.882-8.882v-79.941c.002-9.812-7.952-17.765-17.763-17.765zm-17.765 79.941h-106.588c-4.91 0-8.882-3.973-8.882-8.882s3.973-8.882 8.882-8.882h106.588c4.91 0 8.882 3.973 8.882 8.882s-3.972 8.882-8.882 8.882zm0-35.53h-106.588c-4.91 0-8.882-3.973-8.882-8.882s3.973-8.882 8.882-8.882h106.588c4.91 0 8.882 3.973 8.882 8.882s-3.972 8.882-8.882 8.882z" fill="url(#SVGID_2_)"/></g></g></g></svg>