<svg id="Capa_1" enable-background="new 0 0 512 512" height="512" viewBox="0 0 512 512" width="512" xmlns="http://www.w3.org/2000/svg" xmlns:xlink="http://www.w3.org/1999/xlink"><linearGradient id="SVGID_1_" gradientUnits="userSpaceOnUse" x1="256" x2="256" y1="512" y2="0"><stop offset="0" stop-color="#addcff"/><stop offset=".5028" stop-color="#eaf6ff"/><stop offset="1" stop-color="#eaf6ff"/></linearGradient><linearGradient id="SVGID_2_" gradientUnits="userSpaceOnUse" x1="255.886" x2="255.886" y1="122.5" y2="389.5"><stop offset="0" stop-color="#5558ff"/><stop offset="1" stop-color="#00c0ff"/></linearGradient><g><g><circle cx="256" cy="256" fill="url(#SVGID_1_)" r="256"/></g><g><g><path d="m113.876 193.7c4.906 0 8.875-3.981 8.875-8.9v-44.5h44.378c4.906 0 8.876-3.981 8.876-8.9s-3.97-8.9-8.876-8.9h-53.254c-4.906 0-8.876 3.981-8.876 8.9v53.4c.001 4.919 3.971 8.9 8.877 8.9zm284.02-71.2h-53.254c-4.906 0-8.875 3.981-8.875 8.9s3.97 8.9 8.875 8.9h44.378v44.5c0 4.919 3.97 8.9 8.875 8.9 4.906 0 8.876-3.981 8.876-8.9v-53.4c.001-4.919-3.969-8.9-8.875-8.9zm-230.766 249.2h-44.378v-44.5c0-4.919-3.97-8.9-8.875-8.9-4.906 0-8.876 3.981-8.876 8.9v53.4c0 4.919 3.97 8.9 8.876 8.9h53.254c4.906 0 8.876-3.981 8.876-8.9-.002-4.919-3.972-8.9-8.877-8.9zm230.766-53.4c-4.906 0-8.875 3.981-8.875 8.9v44.5h-44.378c-4.906 0-8.875 3.981-8.875 8.9s3.97 8.9 8.875 8.9h53.254c4.906 0 8.876-3.981 8.876-8.9v-53.4c-.001-4.919-3.971-8.9-8.877-8.9zm-257.393-133.752v142.4c0 14.723 11.944 26.7 26.627 26.7h177.513c14.683 0 26.627-11.977 26.627-26.7v-142.4c0-14.723-11.944-26.7-26.627-26.7h-177.513c-14.683 0-26.627 11.977-26.627 26.7zm177.513 17.8c0-4.919 3.97-8.9 8.876-8.9s8.876 3.981 8.876 8.9v106.8c0 4.919-3.97 8.9-8.876 8.9s-8.876-3.98-8.876-8.9zm-35.503 0c0-4.919 3.97-8.9 8.875-8.9 4.906 0 8.876 3.981 8.876 8.9v71.2c0 4.919-3.97 8.9-8.876 8.9s-8.875-3.981-8.875-8.9zm8.876 98.154c4.902 0 8.876 3.984 8.876 8.9 0 4.915-3.974 8.9-8.876 8.9-4.901 0-8.875-3.985-8.875-8.9-.001-4.916 3.973-8.9 8.875-8.9zm-44.379-98.154c0-4.919 3.97-8.9 8.876-8.9s8.875 3.981 8.875 8.9v71.2c0 4.919-3.97 8.9-8.875 8.9-4.906 0-8.876-3.981-8.876-8.9zm8.876 98.154c4.901 0 8.875 3.984 8.875 8.9 0 4.915-3.974 8.9-8.875 8.9-4.902 0-8.876-3.985-8.876-8.9 0-4.916 3.975-8.9 8.876-8.9zm-44.378-98.154c0-4.919 3.97-8.9 8.876-8.9s8.876 3.981 8.876 8.9v71.2c0 4.919-3.97 8.9-8.876 8.9s-8.876-3.981-8.876-8.9zm8.876 98.154c4.902 0 8.876 3.984 8.876 8.9 0 4.915-3.974 8.9-8.876 8.9s-8.876-3.985-8.876-8.9c0-4.916 3.974-8.9 8.876-8.9zm-44.379-98.154c0-4.919 3.97-8.9 8.875-8.9s8.876 3.981 8.876 8.9v106.8c0 4.919-3.97 8.9-8.876 8.9s-8.875-3.98-8.875-8.9z" fill="url(#SVGID_2_)"/></g></g></g></svg>