<svg id="Capa_1" enable-background="new 0 0 512 512" height="512" viewBox="0 0 512 512" width="512" xmlns="http://www.w3.org/2000/svg" xmlns:xlink="http://www.w3.org/1999/xlink"><linearGradient id="SVGID_1_" gradientUnits="userSpaceOnUse" x1="256" x2="256" y1="512" y2="0"><stop offset="0" stop-color="#ffe59a"/><stop offset="1" stop-color="#ffffd5"/></linearGradient><linearGradient id="SVGID_2_" gradientUnits="userSpaceOnUse" x1="256" x2="256" y1="389" y2="123"><stop offset="0" stop-color="#ffde00"/><stop offset="1" stop-color="#fd5900"/></linearGradient><g><g><circle cx="256" cy="256" fill="url(#SVGID_1_)" r="256"/></g><g><g><path d="m398.118 282.6h-133.236v-44.333c0-4.901-3.973-8.867-8.882-8.867s-8.882 3.966-8.882 8.867v44.333h-133.236c-4.91 0-8.882 3.966-8.882 8.867v70.933c0 4.901 3.973 8.867 8.882 8.867h26.647v8.867c0 4.901 3.973 8.867 8.882 8.867 4.91 0 8.883-3.966 8.883-8.867v-8.867h195.412v8.867c0 4.901 3.973 8.867 8.883 8.867 4.909 0 8.882-3.966 8.882-8.867v-8.867h26.647c4.91 0 8.882-3.966 8.882-8.867v-70.933c0-4.901-3.973-8.867-8.882-8.867zm-248.706 53.2c-4.905 0-8.882-3.97-8.882-8.867s3.977-8.867 8.882-8.867 8.883 3.97 8.883 8.867c-.001 4.897-3.978 8.867-8.883 8.867zm35.529 0c-4.905 0-8.882-3.97-8.882-8.867s3.977-8.867 8.882-8.867 8.882 3.97 8.882 8.867-3.977 8.867-8.882 8.867zm35.53 0c-4.905 0-8.882-3.97-8.882-8.867s3.977-8.867 8.882-8.867 8.882 3.97 8.882 8.867-3.977 8.867-8.882 8.867zm-71.059-88.667c4.91 0 8.883-3.966 8.883-8.867 0-53.78 43.831-97.533 97.706-97.533s97.706 43.753 97.706 97.533c0 4.901 3.973 8.867 8.883 8.867 4.909 0 8.882-3.966 8.882-8.867-.001-63.555-51.804-115.266-115.472-115.266s-115.471 51.711-115.471 115.267c0 4.901 3.973 8.866 8.883 8.866zm177.647 0c4.909 0 8.882-3.966 8.882-8.867 0-44.004-35.859-79.8-79.941-79.8s-79.941 35.796-79.941 79.8c0 4.901 3.973 8.867 8.882 8.867 4.91 0 8.882-3.966 8.882-8.867 0-34.22 27.896-62.067 62.177-62.067s62.177 27.847 62.177 62.067c0 4.902 3.972 8.867 8.882 8.867zm-71.059-53.2c-24.487 0-44.412 19.889-44.412 44.333 0 4.901 3.973 8.867 8.882 8.867s8.882-3.966 8.882-8.867c0-14.668 11.953-26.6 26.647-26.6s26.647 11.932 26.647 26.6c0 4.901 3.973 8.867 8.882 8.867 4.91 0 8.882-3.966 8.882-8.867.002-24.443-19.923-44.333-44.41-44.333z" fill="url(#SVGID_2_)"/></g></g></g></svg>