<svg id="Capa_1" enable-background="new 0 0 512 512" height="512" viewBox="0 0 512 512" width="512" xmlns="http://www.w3.org/2000/svg" xmlns:xlink="http://www.w3.org/1999/xlink"><linearGradient id="SVGID_1_" gradientUnits="userSpaceOnUse" x1="0" x2="512" y1="256" y2="256"><stop offset="0" stop-color="#ffbef9"/><stop offset="1" stop-color="#fff1ff"/></linearGradient><linearGradient id="SVGID_2_" gradientUnits="userSpaceOnUse" x1="256" x2="256" y1="105" y2="407"><stop offset="0" stop-color="#a93aff"/><stop offset="1" stop-color="#ff81ff"/></linearGradient><g><circle cx="256" cy="256" fill="url(#SVGID_1_)" r="256"/><g><g><path d="m398.118 193.823c4.91 0 8.882-3.973 8.882-8.882v-71.059c0-4.91-3.973-8.882-8.882-8.882h-284.236c-4.91 0-8.882 3.973-8.882 8.882v71.059c0 4.91 3.973 8.882 8.882 8.882h133.235v17.765h-133.235c-4.91 0-8.882 3.973-8.882 8.883v71.059c0 4.91 3.973 8.882 8.882 8.882h133.235v17.765h-133.235c-4.91 0-8.882 3.973-8.882 8.882v71.059c0 4.91 3.973 8.882 8.882 8.882h284.235c4.91 0 8.882-3.973 8.882-8.882v-71.059c0-4.91-3.973-8.882-8.882-8.882h-133.235v-17.765h133.235c4.91 0 8.882-3.973 8.882-8.882v-71.059c0-4.91-3.973-8.883-8.882-8.883h-133.235v-17.765zm-106.589-53.294h71.059c4.91 0 8.882 3.973 8.882 8.882 0 4.91-3.973 8.883-8.882 8.883h-71.059c-4.91 0-8.882-3.973-8.882-8.883 0-4.909 3.973-8.882 8.882-8.882zm-142.117 17.764c-4.905 0-8.882-3.976-8.882-8.882 0-4.905 3.977-8.882 8.882-8.882s8.882 3.977 8.882 8.882c0 4.906-3.977 8.882-8.882 8.882zm35.529 0c-4.905 0-8.882-3.976-8.882-8.882 0-4.905 3.977-8.882 8.882-8.882s8.882 3.977 8.882 8.882c.001 4.906-3.977 8.882-8.882 8.882zm-35.529 106.588c-4.905 0-8.882-3.976-8.882-8.882 0-4.905 3.977-8.882 8.882-8.882s8.882 3.977 8.882 8.882c0 4.906-3.977 8.882-8.882 8.882zm35.529 0c-4.905 0-8.882-3.976-8.882-8.882 0-4.905 3.977-8.882 8.882-8.882s8.882 3.977 8.882 8.882c.001 4.906-3.977 8.882-8.882 8.882zm-35.529 106.588c-4.905 0-8.882-3.976-8.882-8.882 0-4.905 3.977-8.882 8.882-8.882s8.882 3.977 8.882 8.882c0 4.906-3.977 8.882-8.882 8.882zm35.529 0c-4.905 0-8.882-3.976-8.882-8.882 0-4.905 3.977-8.882 8.882-8.882s8.882 3.977 8.882 8.882c.001 4.906-3.977 8.882-8.882 8.882zm106.588-17.763h71.059c4.91 0 8.882 3.973 8.882 8.882 0 4.91-3.973 8.883-8.882 8.883h-71.059c-4.91 0-8.882-3.973-8.882-8.883 0-4.909 3.973-8.882 8.882-8.882zm0-106.588h71.059c4.91 0 8.882 3.973 8.882 8.882s-3.973 8.882-8.882 8.882h-71.059c-4.91 0-8.882-3.973-8.882-8.882s3.973-8.882 8.882-8.882z" fill="url(#SVGID_2_)"/></g></g></g></svg>