<svg id="Capa_1" enable-background="new 0 0 512 512" height="512" viewBox="0 0 512 512" width="512" xmlns="http://www.w3.org/2000/svg" xmlns:xlink="http://www.w3.org/1999/xlink"><linearGradient id="SVGID_1_" gradientUnits="userSpaceOnUse" x1="256" x2="256" y1="512" y2="0"><stop offset="0" stop-color="#ffc8d1"/><stop offset="1" stop-color="#fff6f7"/></linearGradient><linearGradient id="SVGID_2_" gradientUnits="userSpaceOnUse" x1="256" x2="256" y1="105" y2="407"><stop offset="0" stop-color="#fd3a84"/><stop offset="1" stop-color="#ffa68d"/></linearGradient><g><circle cx="256" cy="256" fill="url(#SVGID_1_)" r="256"/><g><g><path d="m149.412 193.823c24.487 0 44.412-19.925 44.412-44.412s-19.925-44.411-44.412-44.411-44.412 19.925-44.412 44.412 19.925 44.411 44.412 44.411zm0 106.589c24.487 0 44.412-19.925 44.412-44.412s-19.925-44.412-44.412-44.412-44.412 19.925-44.412 44.412 19.925 44.412 44.412 44.412zm0 17.764c-24.487 0-44.412 19.925-44.412 44.412s19.925 44.412 44.412 44.412 44.412-19.925 44.412-44.412-19.925-44.412-44.412-44.412zm43.346-124.353h169.831c2.309 0 4.619-.888 6.217-2.665l35.53-35.529c3.553-3.375 3.553-9.059 0-12.434l-35.53-35.529c-1.598-1.777-3.908-2.665-6.217-2.665h-169.831c11.547 11.37 18.831 27.003 18.831 44.412s-7.284 33.041-18.831 44.41zm63.242-53.294h35.529c4.975 0 8.882 3.908 8.882 8.882 0 4.975-3.908 8.882-8.882 8.882h-35.529c-4.975 0-8.882-3.908-8.882-8.882s3.908-8.882 8.882-8.882zm112.806 73.724c-1.598-1.777-3.908-2.665-6.217-2.665h-169.831c11.547 11.37 18.831 27.003 18.831 44.412s-7.283 33.042-18.831 44.412h169.831c2.309 0 4.619-.888 6.217-2.665l35.53-35.529c3.553-3.375 3.553-9.059 0-12.434zm-77.276 50.629h-35.53c-4.975 0-8.882-3.908-8.882-8.882 0-4.975 3.908-8.882 8.882-8.882h35.529c4.975 0 8.882 3.908 8.882 8.882.001 4.975-3.907 8.882-8.881 8.882zm77.276 55.96c-1.598-1.777-3.908-2.665-6.217-2.665h-169.831c11.547 11.37 18.831 27.003 18.831 44.412s-7.283 33.042-18.831 44.412h169.831c2.309 0 4.619-.888 6.217-2.665l35.53-35.529c3.553-3.375 3.553-9.059 0-12.434zm-77.276 50.629h-35.53c-4.975 0-8.882-3.908-8.882-8.882 0-4.975 3.908-8.882 8.882-8.882h35.529c4.975 0 8.882 3.908 8.882 8.882.001 4.974-3.907 8.882-8.881 8.882z" fill="url(#SVGID_2_)"/></g></g></g></svg>