<svg id="Camada_1" data-name="Camada 1" xmlns="http://www.w3.org/2000/svg" viewBox="0 0 910.67 323.78"><defs><style>.cls-1{fill:none;}.cls-1,.cls-2{stroke:#fff;stroke-miterlimit:10;stroke-width:6px;}.cls-2{fill:#fff;}</style></defs><title>sysnti</title><path class="cls-1" d="M30.25,87.79q0-50.84,49-50.83t49.12,50.83v32.58H94.21V87.79q0-16.29-14.84-16.41h-.24q-14.73,0-14.73,16.41v22q0,16.15,32,39.6t32,55.9v30.6q0,51-49,51t-49.12-51V203.29H64.4v32.57q0,16.41,15,16.41t14.84-16.41V208.22q0-17.52-32-41t-32-56.76Z"/><path class="cls-1" d="M219.76,40.84l23.29,94.4,23.29-94.4h36.21l-41.4,137.34-1,3V282.93H226V181.14l-1.09-3L183.55,40.84Z"/><path class="cls-1" d="M357.73,87.79q0-50.84,49-50.83t49.12,50.83v32.58H421.69V87.79q0-16.29-14.84-16.41h-.24q-14.73,0-14.73,16.41v22q0,16.15,32,39.6t32,55.9v30.6q0,51-49,51t-49.12-51V203.29h34.15v32.57q0,16.41,15,16.41t14.84-16.41V208.22q0-17.52-32-41t-32-56.76Z"/><path class="cls-1" d="M521.89,40.84H556l32.35,140.42V40.84H620V282.93H585.85L554.72,147v136H521.89Z"/><path class="cls-1" d="M776.93,40.84V75.27H745V282.93H710.79V75.27h-32V40.84Z"/><path class="cls-2" d="M836.33,40.84h34.16V282.93H836.33Z"/></svg>